<?xml version="1.0" encoding="UTF-8"?>
<svg xmlns="http://www.w3.org/2000/svg" width="20" height="20" viewBox="0 0 20 20" fill="none">
  <path d="M11.3481 17.8056C10.9867 18.144 10.5037 18.3332 10.0009 18.3332C9.49821 18.3332 9.01515 18.144 8.65374 17.8056C5.34418 14.6882 0.908969 11.2056 3.07189 6.14956C4.24136 3.4158 7.04862 1.6665 10.0009 1.6665C12.9532 1.6665 15.7605 3.4158 16.93 6.14956C19.0902 11.1992 14.6658 14.6989 11.3481 17.8056Z" stroke="#667085" stroke-width="1.5"></path>
  <path d="M12.9167 9.16667C12.9167 10.7775 11.6108 12.0833 10 12.0833C8.38917 12.0833 7.08334 10.7775 7.08334 9.16667C7.08334 7.55584 8.38917 6.25 10 6.25C11.6108 6.25 12.9167 7.55584 12.9167 9.16667Z" stroke="#667085" stroke-width="1.5"></path>
</svg>
