<?xml version="1.0" encoding="UTF-8"?>
<svg xmlns="http://www.w3.org/2000/svg" width="181" height="28" viewBox="0 0 181 28" fill="none">
  <path fill-rule="evenodd" clip-rule="evenodd" d="M14 28C21.732 28 28 21.732 28 14C28 6.26801 21.732 0 14 0C6.26801 0 0 6.26801 0 14C0 21.732 6.26801 28 14 28ZM17.2479 11.172C15.3892 9.38403 14.3561 7.01781 14.3223 4.50093H14.1529C14.119 7.02195 13.086 9.38817 11.2273 11.172C9.36865 12.9599 6.90888 13.9536 4.29234 13.9862V14.1532C6.91311 14.1857 9.37297 15.1795 11.2273 16.9674C13.0902 18.7593 14.1233 21.1338 14.1529 23.6588H14.3265C14.3561 21.1338 15.3892 18.7593 17.2521 16.9674C19.1108 15.1795 21.5705 14.1857 24.1871 14.1532V13.9862C21.5663 13.9536 19.1064 12.9599 17.2479 11.172Z" fill="#2A3C43"></path>
  <path d="M43.5867 22.7819C42.3184 22.7819 41.1753 22.4922 40.1574 21.9128C39.1553 21.3178 38.3645 20.5192 37.7851 19.517C37.2057 18.4992 36.916 17.3561 36.916 16.0877C36.916 14.8193 37.2057 13.684 37.7851 12.6819C38.3645 11.6797 39.1553 10.8889 40.1574 10.3096C41.1753 9.73018 42.3184 9.44049 43.5867 9.44049C44.4949 9.44049 45.3405 9.6049 46.1235 9.93374C46.9064 10.2469 47.5797 10.6854 48.1435 11.2491C48.7228 11.7971 49.1378 12.4548 49.3884 13.2221L46.6872 14.3965C46.4523 13.7545 46.053 13.2378 45.4893 12.8463C44.9412 12.4548 44.307 12.2591 43.5867 12.2591C42.9134 12.2591 42.3105 12.4235 41.7781 12.7523C41.2614 13.0812 40.8543 13.5353 40.5567 14.1147C40.2592 14.694 40.1105 15.3595 40.1105 16.1112C40.1105 16.8628 40.2592 17.5283 40.5567 18.1077C40.8543 18.6871 41.2614 19.1412 41.7781 19.47C42.3105 19.7988 42.9134 19.9633 43.5867 19.9633C44.3227 19.9633 44.9647 19.7675 45.5128 19.3761C46.0608 18.9846 46.4523 18.46 46.6872 17.8023L49.3884 19.0237C49.1378 19.744 48.7307 20.3939 48.167 20.9733C47.6032 21.537 46.9299 21.9833 46.147 22.3121C45.364 22.6253 44.5106 22.7819 43.5867 22.7819ZM54.1896 22.7819C53.297 22.7819 52.5219 22.6331 51.8642 22.3356C51.2066 22.0381 50.6977 21.6153 50.3375 21.0672C49.9773 20.5035 49.7973 19.8536 49.7973 19.1177C49.7973 18.413 49.9539 17.7867 50.267 17.2386C50.5802 16.6749 51.0656 16.2051 51.7233 15.8293C52.381 15.4535 53.2109 15.1873 54.2131 15.0307L58.394 14.3495V16.6984L54.8003 17.3091C54.1896 17.4187 53.7355 17.6144 53.438 17.8963C53.1404 18.1781 52.9917 18.5461 52.9917 19.0002C52.9917 19.4387 53.1561 19.791 53.4849 20.0572C53.8294 20.3078 54.2522 20.433 54.7533 20.433C55.3953 20.433 55.959 20.2999 56.4445 20.0337C56.9456 19.7519 57.3292 19.3682 57.5954 18.8828C57.8773 18.3974 58.0182 17.865 58.0182 17.2856V13.9972C58.0182 13.4492 57.799 12.9951 57.3605 12.6349C56.9377 12.2591 56.374 12.0712 55.6694 12.0712C55.0117 12.0712 54.4245 12.2513 53.9077 12.6114C53.4066 12.9559 53.0387 13.4178 52.8038 13.9972L50.2905 12.7758C50.5411 12.1025 50.9325 11.5231 51.4649 11.0377C52.013 10.5366 52.655 10.1451 53.391 9.86328C54.127 9.58142 54.9256 9.44049 55.7868 9.44049C56.8359 9.44049 57.7598 9.63622 58.5584 10.0277C59.357 10.4035 59.9756 10.9359 60.414 11.6249C60.8681 12.2982 61.0952 13.089 61.0952 13.9972V22.5H58.1826V20.3156L58.8403 20.2686C58.5114 20.8167 58.12 21.2786 57.6659 21.6544C57.2118 22.0146 56.695 22.2964 56.1156 22.5C55.5363 22.6879 54.8942 22.7819 54.1896 22.7819ZM62.5759 22.5V9.72235H65.465V12.5644L65.2301 12.1416C65.5276 11.1865 65.9896 10.5209 66.6159 10.1451C67.2579 9.76932 68.0252 9.58142 68.9178 9.58142H69.6694V12.3061H68.5654C67.6885 12.3061 66.9839 12.5801 66.4515 13.1282C65.9191 13.6606 65.6529 14.4122 65.6529 15.383V22.5H62.5759ZM78.9634 22.7819C77.695 22.7819 76.5519 22.4922 75.5341 21.9128C74.5319 21.3178 73.7412 20.5192 73.1618 19.517C72.5824 18.4992 72.2927 17.3561 72.2927 16.0877C72.2927 14.8193 72.5824 13.684 73.1618 12.6819C73.7412 11.6797 74.5319 10.8889 75.5341 10.3096C76.5519 9.73018 77.695 9.44049 78.9634 9.44049C79.8716 9.44049 80.7172 9.6049 81.5002 9.93374C82.2831 10.2469 82.9564 10.6854 83.5201 11.2491C84.0995 11.7971 84.5145 12.4548 84.765 13.2221L82.0639 14.3965C81.829 13.7545 81.4297 13.2378 80.866 12.8463C80.3179 12.4548 79.6837 12.2591 78.9634 12.2591C78.2901 12.2591 77.6872 12.4235 77.1548 12.7523C76.6381 13.0812 76.2309 13.5353 75.9334 14.1147C75.6359 14.694 75.4871 15.3595 75.4871 16.1112C75.4871 16.8628 75.6359 17.5283 75.9334 18.1077C76.2309 18.6871 76.6381 19.1412 77.1548 19.47C77.6872 19.7988 78.2901 19.9633 78.9634 19.9633C79.6994 19.9633 80.3414 19.7675 80.8895 19.3761C81.4375 18.9846 81.829 18.46 82.0639 17.8023L84.765 19.0237C84.5145 19.744 84.1074 20.3939 83.5436 20.9733C82.9799 21.537 82.3066 21.9833 81.5236 22.3121C80.7407 22.6253 79.8873 22.7819 78.9634 22.7819ZM91.9845 22.7819C90.7318 22.7819 89.5887 22.4922 88.5552 21.9128C87.5373 21.3334 86.7231 20.5426 86.1124 19.5405C85.5173 18.5383 85.2198 17.3952 85.2198 16.1112C85.2198 14.8271 85.5173 13.684 86.1124 12.6819C86.7231 11.6797 87.5373 10.8889 88.5552 10.3096C89.573 9.73018 90.7161 9.44049 91.9845 9.44049C93.2372 9.44049 94.3724 9.73018 95.3903 10.3096C96.4081 10.8889 97.2145 11.6797 97.8096 12.6819C98.4203 13.6684 98.7256 14.8115 98.7256 16.1112C98.7256 17.3952 98.4203 18.5383 97.8096 19.5405C97.1989 20.5426 96.3846 21.3334 95.3668 21.9128C94.349 22.4922 93.2215 22.7819 91.9845 22.7819ZM91.9845 19.9633C92.6735 19.9633 93.2763 19.7988 93.7931 19.47C94.3255 19.1412 94.7404 18.6871 95.038 18.1077C95.3511 17.5126 95.5077 16.8471 95.5077 16.1112C95.5077 15.3595 95.3511 14.7019 95.038 14.1382C94.7404 13.5588 94.3255 13.1047 93.7931 12.7758C93.2763 12.4313 92.6735 12.2591 91.9845 12.2591C91.2798 12.2591 90.6613 12.4313 90.1289 12.7758C89.5965 13.1047 89.1737 13.5588 88.8605 14.1382C88.563 14.7019 88.4142 15.3595 88.4142 16.1112C88.4142 16.8471 88.563 17.5126 88.8605 18.1077C89.1737 18.6871 89.5965 19.1412 90.1289 19.47C90.6613 19.7988 91.2798 19.9633 91.9845 19.9633ZM104.558 22.7819C103.196 22.7819 102.006 22.4609 100.988 21.8188C99.9856 21.1612 99.2966 20.2764 98.9208 19.1647L101.223 18.0607C101.551 18.781 102.006 19.3447 102.585 19.7519C103.18 20.159 103.838 20.3626 104.558 20.3626C105.122 20.3626 105.568 20.2373 105.897 19.9867C106.226 19.7362 106.39 19.4074 106.39 19.0002C106.39 18.7497 106.32 18.5461 106.179 18.3895C106.053 18.2173 105.873 18.0764 105.638 17.9668C105.419 17.8415 105.176 17.7397 104.91 17.6614L102.82 17.0742C101.739 16.761 100.917 16.2834 100.354 15.6414C99.8055 14.9994 99.5315 14.2399 99.5315 13.363C99.5315 12.5801 99.7272 11.8989 100.119 11.3196C100.526 10.7245 101.082 10.2626 101.786 9.93374C102.507 9.6049 103.329 9.44049 104.253 9.44049C105.458 9.44049 106.523 9.73018 107.447 10.3096C108.371 10.8889 109.029 11.7032 109.42 12.7523L107.071 13.8563C106.852 13.2769 106.484 12.815 105.967 12.4705C105.451 12.126 104.871 11.9537 104.229 11.9537C103.712 11.9537 103.305 12.0712 103.008 12.3061C102.71 12.5409 102.561 12.8463 102.561 13.2221C102.561 13.457 102.624 13.6606 102.749 13.8328C102.875 14.0051 103.047 14.146 103.266 14.2556C103.501 14.3652 103.767 14.467 104.065 14.5609L106.108 15.1716C107.157 15.4848 107.964 15.9546 108.527 16.5809C109.107 17.2073 109.397 17.9746 109.397 18.8828C109.397 19.6501 109.193 20.3312 108.786 20.9263C108.379 21.5057 107.815 21.9598 107.095 22.2886C106.374 22.6174 105.529 22.7819 104.558 22.7819ZM110.398 22.5V9.72235H113.287V12.6819L112.958 12.1886C113.193 11.2647 113.663 10.5758 114.368 10.1216C115.072 9.66754 115.902 9.44049 116.857 9.44049C117.906 9.44049 118.83 9.71452 119.629 10.2626C120.428 10.8106 120.944 11.5309 121.179 12.4235L120.31 12.494C120.702 11.4761 121.289 10.7167 122.072 10.2156C122.855 9.69886 123.755 9.44049 124.773 9.44049C125.681 9.44049 126.488 9.64405 127.192 10.0512C127.912 10.4583 128.476 11.0299 128.883 11.7658C129.29 12.4861 129.494 13.3239 129.494 14.2791V22.5H126.417V15.0072C126.417 14.4435 126.315 13.9581 126.112 13.5509C125.908 13.1438 125.626 12.8306 125.266 12.6114C124.906 12.3765 124.468 12.2591 123.951 12.2591C123.465 12.2591 123.035 12.3765 122.659 12.6114C122.283 12.8306 121.993 13.1438 121.79 13.5509C121.586 13.9581 121.485 14.4435 121.485 15.0072V22.5H118.408V15.0072C118.408 14.4435 118.306 13.9581 118.102 13.5509C117.899 13.1438 117.609 12.8306 117.233 12.6114C116.873 12.3765 116.442 12.2591 115.941 12.2591C115.456 12.2591 115.025 12.3765 114.649 12.6114C114.274 12.8306 113.984 13.1438 113.78 13.5509C113.577 13.9581 113.475 14.4435 113.475 15.0072V22.5H110.398ZM136.794 22.7819C135.479 22.7819 134.328 22.4843 133.341 21.8893C132.355 21.2943 131.587 20.4878 131.039 19.47C130.491 18.4522 130.217 17.3247 130.217 16.0877C130.217 14.8037 130.491 13.6684 131.039 12.6819C131.603 11.6797 132.363 10.8889 133.318 10.3096C134.289 9.73018 135.369 9.44049 136.559 9.44049C137.561 9.44049 138.438 9.6049 139.19 9.93374C139.957 10.2626 140.607 10.7167 141.139 11.2961C141.672 11.8754 142.079 12.5409 142.361 13.2926C142.643 14.0285 142.784 14.8271 142.784 15.6884C142.784 15.9076 142.768 16.1347 142.737 16.3695C142.721 16.6044 142.682 16.808 142.619 16.9802H132.754V14.6314H140.881L139.425 15.7354C139.566 15.0151 139.526 14.373 139.307 13.8093C139.104 13.2456 138.759 12.7993 138.274 12.4705C137.804 12.1416 137.232 11.9772 136.559 11.9772C135.917 11.9772 135.346 12.1416 134.844 12.4705C134.343 12.7837 133.96 13.2534 133.694 13.8798C133.443 14.4905 133.349 15.2343 133.412 16.1112C133.349 16.8941 133.451 17.5909 133.717 18.2016C133.999 18.7967 134.406 19.2586 134.938 19.5874C135.487 19.9163 136.113 20.0807 136.818 20.0807C137.522 20.0807 138.117 19.9319 138.603 19.6344C139.104 19.3369 139.495 18.9376 139.777 18.4365L142.267 19.6579C142.016 20.2686 141.625 20.8088 141.092 21.2786C140.56 21.7484 139.926 22.1164 139.19 22.3826C138.47 22.6488 137.671 22.7819 136.794 22.7819ZM149.578 22.6409C148.137 22.6409 147.018 22.2495 146.219 21.4665C145.436 20.6679 145.045 19.5483 145.045 18.1077V12.4705H142.837V9.72235H143.072C143.698 9.72235 144.184 9.55793 144.528 9.22909C144.872 8.90025 145.045 8.42266 145.045 7.7963V6.80979H148.122V9.72235H151.058V12.4705H148.122V17.9433C148.122 18.3661 148.192 18.7262 148.333 19.0237C148.49 19.3212 148.725 19.5483 149.038 19.7049C149.367 19.8615 149.782 19.9398 150.283 19.9398C150.392 19.9398 150.518 19.9319 150.658 19.9163C150.815 19.9006 150.964 19.885 151.105 19.8693V22.5C150.886 22.5313 150.635 22.5626 150.353 22.594C150.071 22.6253 149.813 22.6409 149.578 22.6409ZM152.092 22.5V9.72235H155.169V22.5H152.092ZM152.092 8.28956V5.00119H155.169V8.28956H152.092ZM162.801 22.7819C161.533 22.7819 160.39 22.4922 159.372 21.9128C158.37 21.3178 157.579 20.5192 157 19.517C156.42 18.4992 156.13 17.3561 156.13 16.0877C156.13 14.8193 156.42 13.684 157 12.6819C157.579 11.6797 158.37 10.8889 159.372 10.3096C160.39 9.73018 161.533 9.44049 162.801 9.44049C163.709 9.44049 164.555 9.6049 165.338 9.93374C166.121 10.2469 166.794 10.6854 167.358 11.2491C167.937 11.7971 168.352 12.4548 168.603 13.2221L165.902 14.3965C165.667 13.7545 165.267 13.2378 164.704 12.8463C164.156 12.4548 163.521 12.2591 162.801 12.2591C162.128 12.2591 161.525 12.4235 160.993 12.7523C160.476 13.0812 160.069 13.5353 159.771 14.1147C159.474 14.694 159.325 15.3595 159.325 16.1112C159.325 16.8628 159.474 17.5283 159.771 18.1077C160.069 18.6871 160.476 19.1412 160.993 19.47C161.525 19.7988 162.128 19.9633 162.801 19.9633C163.537 19.9633 164.179 19.7675 164.727 19.3761C165.275 18.9846 165.667 18.46 165.902 17.8023L168.603 19.0237C168.352 19.744 167.945 20.3939 167.381 20.9733C166.818 21.537 166.144 21.9833 165.361 22.3121C164.578 22.6253 163.725 22.7819 162.801 22.7819ZM174.436 22.7819C173.074 22.7819 171.884 22.4609 170.866 21.8188C169.864 21.1612 169.175 20.2764 168.799 19.1647L171.101 18.0607C171.43 18.781 171.884 19.3447 172.463 19.7519C173.058 20.159 173.716 20.3626 174.436 20.3626C175 20.3626 175.446 20.2373 175.775 19.9867C176.104 19.7362 176.269 19.4074 176.269 19.0002C176.269 18.7497 176.198 18.5461 176.057 18.3895C175.932 18.2173 175.752 18.0764 175.517 17.9668C175.298 17.8415 175.055 17.7397 174.789 17.6614L172.698 17.0742C171.618 16.761 170.796 16.2834 170.232 15.6414C169.684 14.9994 169.41 14.2399 169.41 13.363C169.41 12.5801 169.606 11.8989 169.997 11.3196C170.404 10.7245 170.96 10.2626 171.665 9.93374C172.385 9.6049 173.207 9.44049 174.131 9.44049C175.337 9.44049 176.402 9.73018 177.325 10.3096C178.249 10.8889 178.907 11.7032 179.298 12.7523L176.95 13.8563C176.73 13.2769 176.362 12.815 175.846 12.4705C175.329 12.126 174.75 11.9537 174.108 11.9537C173.591 11.9537 173.184 12.0712 172.886 12.3061C172.589 12.5409 172.44 12.8463 172.44 13.2221C172.44 13.457 172.503 13.6606 172.628 13.8328C172.753 14.0051 172.925 14.146 173.145 14.2556C173.379 14.3652 173.646 14.467 173.943 14.5609L175.987 15.1716C177.036 15.4848 177.842 15.9546 178.406 16.5809C178.985 17.2073 179.275 17.9746 179.275 18.8828C179.275 19.6501 179.071 20.3312 178.664 20.9263C178.257 21.5057 177.693 21.9598 176.973 22.2886C176.253 22.6174 175.407 22.7819 174.436 22.7819Z" fill="#2A3C43"></path>
</svg>
