<?xml version="1.0" encoding="UTF-8"?>
<svg xmlns="http://www.w3.org/2000/svg" width="20" height="20" viewBox="0 0 20 20" fill="none">
  <path d="M3.22741 14.1829L2.22443 8.19985C2.07279 7.29524 1.99697 6.84293 2.23977 6.54647C2.48258 6.25 2.92884 6.25 3.82136 6.25L16.1786 6.25C17.0712 6.25 17.5174 6.25 17.7602 6.54647C18.003 6.84293 17.9272 7.29524 17.7756 8.19985L16.7726 14.1829C16.4401 16.1659 16.2739 17.1574 15.5953 17.7454C14.9166 18.3333 13.9384 18.3333 11.9818 18.3333H8.01818C6.06163 18.3333 5.08335 18.3333 4.4047 17.7454C3.72605 17.1574 3.55984 16.1659 3.22741 14.1829Z" stroke="#14181F" stroke-width="1.5"></path>
  <path d="M14.5833 6.24984C14.5833 3.71853 12.5313 1.6665 10 1.6665C7.4687 1.6665 5.41667 3.71853 5.41667 6.24984" stroke="#14181F" stroke-width="1.5"></path>
</svg>
