<?xml version="1.0" encoding="UTF-8"?>
<svg xmlns="http://www.w3.org/2000/svg" width="20" height="20" viewBox="0 0 20 20" fill="none">
  <path d="M2.5 14.5C2.5 13.3447 2.5 12.767 2.76005 12.3426C2.90556 12.1052 3.1052 11.9056 3.34265 11.76C3.76701 11.5 4.34467 11.5 5.5 11.5C6.65533 11.5 7.23299 11.5 7.65735 11.76C7.8948 11.9056 8.09444 12.1052 8.23995 12.3426C8.5 12.767 8.5 13.3447 8.5 14.5C8.5 15.6553 8.5 16.233 8.23995 16.6574C8.09444 16.8948 7.8948 17.0944 7.65735 17.24C7.23299 17.5 6.65533 17.5 5.5 17.5C4.34467 17.5 3.76701 17.5 3.34265 17.24C3.1052 17.0944 2.90556 16.8948 2.76005 16.6574C2.5 16.233 2.5 15.6553 2.5 14.5Z" stroke="#30374F" stroke-width="1.5"></path>
  <path d="M11.5 14.5C11.5 13.3447 11.5 12.767 11.76 12.3426C11.9056 12.1052 12.1052 11.9056 12.3426 11.76C12.767 11.5 13.3447 11.5 14.5 11.5C15.6553 11.5 16.233 11.5 16.6574 11.76C16.8948 11.9056 17.0944 12.1052 17.24 12.3426C17.5 12.767 17.5 13.3447 17.5 14.5C17.5 15.6553 17.5 16.233 17.24 16.6574C17.0944 16.8948 16.8948 17.0944 16.6574 17.24C16.233 17.5 15.6553 17.5 14.5 17.5C13.3447 17.5 12.767 17.5 12.3426 17.24C12.1052 17.0944 11.9056 16.8948 11.76 16.6574C11.5 16.233 11.5 15.6553 11.5 14.5Z" stroke="#30374F" stroke-width="1.5"></path>
  <path d="M2.5 5.5C2.5 4.34467 2.5 3.76701 2.76005 3.34265C2.90556 3.1052 3.1052 2.90556 3.34265 2.76005C3.76701 2.5 4.34467 2.5 5.5 2.5C6.65533 2.5 7.23299 2.5 7.65735 2.76005C7.8948 2.90556 8.09444 3.1052 8.23995 3.34265C8.5 3.76701 8.5 4.34467 8.5 5.5C8.5 6.65533 8.5 7.23299 8.23995 7.65735C8.09444 7.8948 7.8948 8.09444 7.65735 8.23995C7.23299 8.5 6.65533 8.5 5.5 8.5C4.34467 8.5 3.76701 8.5 3.34265 8.23995C3.1052 8.09444 2.90556 7.8948 2.76005 7.65735C2.5 7.23299 2.5 6.65533 2.5 5.5Z" stroke="#30374F" stroke-width="1.5"></path>
  <path d="M11.5 5.5C11.5 4.34467 11.5 3.76701 11.76 3.34265C11.9056 3.1052 12.1052 2.90556 12.3426 2.76005C12.767 2.5 13.3447 2.5 14.5 2.5C15.6553 2.5 16.233 2.5 16.6574 2.76005C16.8948 2.90556 17.0944 3.1052 17.24 3.34265C17.5 3.76701 17.5 4.34467 17.5 5.5C17.5 6.65533 17.5 7.23299 17.24 7.65735C17.0944 7.8948 16.8948 8.09444 16.6574 8.23995C16.233 8.5 15.6553 8.5 14.5 8.5C13.3447 8.5 12.767 8.5 12.3426 8.23995C12.1052 8.09444 11.9056 7.8948 11.76 7.65735C11.5 7.23299 11.5 6.65533 11.5 5.5Z" stroke="#30374F" stroke-width="1.5"></path>
</svg>
